<svg width="53" height="53" viewBox="0 0 53 53" fill="none" xmlns="http://www.w3.org/2000/svg">
<path d="M26.7208 40.9646L26.5 41.1854L26.257 40.9646C15.7675 31.4467 8.83329 25.1529 8.83329 18.7708C8.83329 14.3542 12.1458 11.0417 16.5625 11.0417C19.9633 11.0417 23.2758 13.25 24.4462 16.2533H28.5537C29.7241 13.25 33.0366 11.0417 36.4375 11.0417C40.8541 11.0417 44.1666 14.3542 44.1666 18.7708C44.1666 25.1529 37.2325 31.4467 26.7208 40.9646ZM36.4375 6.625C32.595 6.625 28.907 8.41375 26.5 11.2183C24.0929 8.41375 20.405 6.625 16.5625 6.625C9.76079 6.625 4.41663 11.9471 4.41663 18.7708C4.41663 27.0962 11.925 33.92 23.2979 44.2329L26.5 47.1479L29.702 44.2329C41.075 33.92 48.5833 27.0962 48.5833 18.7708C48.5833 11.9471 43.2391 6.625 36.4375 6.625Z" fill="#ED163C"/>
</svg>
