<svg width="53" height="51" viewBox="0 0 53 51" fill="none" xmlns="http://www.w3.org/2000/svg">
    <g clip-path="url(#clip0_51_79)">
        <path
            d="M47.954 49.6139C48.9489 50.5713 50.5316 50.5409 51.4889 49.546C52.4463 48.551 52.4159 46.9684 51.4209 46.0111L47.954 49.6139ZM43.0625 22.3125H40.5625C40.5625 31.4045 32.875 38.9375 23.1875 38.9375V41.4375V43.9375C35.4534 43.9375 45.5625 34.3454 45.5625 22.3125H43.0625ZM23.1875 41.4375V38.9375C13.5 38.9375 5.8125 31.4045 5.8125 22.3125H3.3125H0.8125C0.8125 34.3454 10.9216 43.9375 23.1875 43.9375V41.4375ZM3.3125 22.3125H5.8125C5.8125 13.2205 13.5 5.6875 23.1875 5.6875V3.1875V0.6875C10.9216 0.6875 0.8125 10.2796 0.8125 22.3125H3.3125ZM23.1875 3.1875V5.6875C32.875 5.6875 40.5625 13.2205 40.5625 22.3125H43.0625H45.5625C45.5625 10.2796 35.4534 0.6875 23.1875 0.6875V3.1875ZM37.2412 35.8359L35.5078 37.6373L47.954 49.6139L49.6875 47.8125L51.4209 46.0111L38.9747 34.0345L37.2412 35.8359Z"
            fill="white" />
    </g>
    <defs>
        <clipPath id="clip0_51_79">
            <rect width="53" height="51" fill="white" />
        </clipPath>
    </defs>
</svg>